<svg width="24" height="18" viewBox="0 0 24 18" fill="none" xmlns="http://www.w3.org/2000/svg">
<path d="M17.861 9.0639C18.486 9.07749 19.1146 9.03631 19.7371 9.0853C20.3675 9.20291 20.5195 10.1573 19.9594 10.4699C19.5772 10.6758 19.1232 10.5466 18.7089 10.5829H17.861V9.0639ZM20.0985 7.34462C20.2373 7.83476 19.7649 8.27483 19.2928 8.20734H17.861C17.8711 7.74512 17.8414 7.24342 17.8755 6.80554C18.4491 6.82169 19.028 6.77259 19.5982 6.83121C19.8433 6.89278 20.0483 7.0942 20.0985 7.34462ZM23.5443 0.0759619C23.5709 1.01201 23.5481 1.99753 23.5558 2.95256C23.554 6.83538 23.5595 10.7181 23.5527 14.6011C23.5276 16.0563 22.238 17.3208 20.7928 17.3498C19.3463 17.3557 17.8996 17.3507 16.4529 17.3523V11.4823C18.0292 11.4742 19.6062 11.4988 21.1818 11.47C21.9128 11.4241 22.7134 10.9418 22.7474 10.1375C22.8335 9.32962 22.0718 8.77086 21.3487 8.68261C21.0707 8.67539 21.0789 8.60158 21.3487 8.56938C22.0384 8.42032 22.58 7.7065 22.3771 6.99161C22.2041 6.23972 21.3731 5.9487 20.6819 5.95015C19.2724 5.94058 17.8627 5.94881 16.4532 5.94603C16.4623 4.85017 16.4342 3.75313 16.4684 2.65807C16.58 1.22916 17.9021 0.0507701 19.3269 0.0763361C20.7329 0.0761221 22.1386 0.0761223 23.5443 0.0760688V0.0759619Z" fill="url(#paint0_linear)"/>
<path d="M0.525283 2.80609C0.561279 1.35321 1.85643 0.0991431 3.29967 0.0779095C4.74084 0.0734702 6.18221 0.0772679 7.62338 0.0759842C7.61942 4.937 7.63119 9.79855 7.61744 14.6593C7.56192 16.0945 6.28089 17.3247 4.85337 17.3501C3.40948 17.3553 1.96543 17.3508 0.521486 17.3523V11.2844C1.92403 11.6157 3.39483 11.7568 4.82567 11.537C5.68095 11.3994 6.61673 10.9793 6.9063 10.092C7.11938 9.33301 6.99942 8.53421 7.03113 7.7552V5.94605H4.55492C4.5438 7.14258 4.57771 8.34118 4.537 9.53626C4.47026 10.2708 3.7428 10.7375 3.05001 10.7126C2.19082 10.7217 0.488217 10.0899 0.488217 10.0899C0.483938 7.84815 0.513142 5.04066 0.525283 2.8063V2.80609Z" fill="url(#paint1_linear)"/>
<path d="M8.54681 6.6758C8.41646 6.70345 8.5206 6.23182 8.48728 6.05291C8.49616 4.9217 8.46872 3.78925 8.50242 2.65884C8.61377 1.22388 9.94603 0.0425497 11.3766 0.0761385H15.5895C15.5855 4.93715 15.5972 9.7987 15.5836 14.6595C15.528 16.0947 14.2469 17.3248 12.8193 17.3502C11.3754 17.3557 9.93126 17.3511 8.48722 17.3525V10.7043C9.47343 11.5134 10.8138 11.6394 12.0425 11.6416C12.9687 11.6413 13.8896 11.4985 14.7891 11.2848V10.0669C13.7754 10.5721 12.5837 10.893 11.46 10.6027C10.6762 10.4076 10.1071 9.65007 10.1198 8.8411C10.029 7.99983 10.5221 7.11165 11.3488 6.86156C12.3753 6.54022 13.494 6.78598 14.4561 7.20376C14.6622 7.31169 14.8715 7.44556 14.789 7.10101V6.14368C13.1799 5.76083 11.4674 5.61995 9.85077 6.03644C9.38283 6.16844 8.92692 6.36863 8.54681 6.67591V6.6758Z" fill="url(#paint2_linear)"/>
<defs>
<linearGradient id="paint0_linear" x1="16.4044" y1="8.34475" x2="23.511" y2="8.34475" gradientUnits="userSpaceOnUse">
<stop stop-color="#58B03A"/>
<stop offset="1" stop-color="#55B330"/>
</linearGradient>
<linearGradient id="paint1_linear" x1="0.370384" y1="8.87958" x2="7.50693" y2="8.87958" gradientUnits="userSpaceOnUse">
<stop stop-color="#0F6EB6"/>
<stop offset="1" stop-color="#006DBA"/>
</linearGradient>
<linearGradient id="paint2_linear" x1="8.47681" y1="8.51229" x2="15.5882" y2="8.51229" gradientUnits="userSpaceOnUse">
<stop stop-color="#DE0D3D"/>
<stop offset="1" stop-color="#E30138"/>
</linearGradient>
</defs>
</svg>
