<svg width="24" height="15" viewBox="0 0 24 15" fill="none" xmlns="http://www.w3.org/2000/svg">
<path fill-rule="evenodd" clip-rule="evenodd" d="M12 12.9674C10.729 14.0642 9.08027 14.7264 7.27869 14.7264C3.25878 14.7264 0 11.4298 0 7.36318C0 3.29661 3.25878 0 7.27869 0C9.08027 0 10.729 0.662129 12 1.75895C13.271 0.662129 14.9197 0 16.7213 0C20.7412 0 24 3.29661 24 7.36318C24 11.4298 20.7412 14.7264 16.7213 14.7264C14.9197 14.7264 13.271 14.0642 12 12.9674Z" fill="#ED0006"/>
<path fill-rule="evenodd" clip-rule="evenodd" d="M12 12.9674C13.565 11.6169 14.5574 9.60726 14.5574 7.36318C14.5574 5.1191 13.565 3.1095 12 1.75895C13.271 0.662129 14.9197 0 16.7213 0C20.7412 0 24 3.29661 24 7.36318C24 11.4298 20.7412 14.7264 16.7213 14.7264C14.9197 14.7264 13.271 14.0642 12 12.9674Z" fill="#F9A000"/>
<path fill-rule="evenodd" clip-rule="evenodd" d="M12 12.9674C13.565 11.6169 14.5574 9.60727 14.5574 7.36322C14.5574 5.11916 13.565 3.10958 12 1.75903C10.435 3.10958 9.44269 5.11916 9.44269 7.36322C9.44269 9.60727 10.435 11.6169 12 12.9674Z" fill="#FF5E00"/>
</svg>
