<svg width="28" height="9" viewBox="0 0 28 9" fill="none" xmlns="http://www.w3.org/2000/svg">
<path d="M25.1587 0H19.8377C20.1476 1.75646 21.8524 3.4096 23.7122 3.4096H27.9484C28 3.25462 28 2.99631 28 2.84133C28 1.29151 26.7085 0 25.1587 0Z" fill="url(#paint0_linear)"/>
<path d="M20.3026 3.92615V8.21397H22.8856V5.94091H25.1587C26.3985 5.94091 27.4834 5.06268 27.845 3.92615H20.3026Z" fill="#4FAD50"/>
<path d="M10.7454 0V7.95573H13.0185C13.0185 7.95573 13.5867 7.95572 13.8967 7.38746C15.4465 4.33949 15.9114 3.4096 15.9114 3.4096H16.2214V7.95573H18.8044V0H16.5314C16.5314 0 15.9631 0.0516637 15.6531 0.568269C14.3616 3.20296 13.6384 4.54613 13.6384 4.54613H13.3284V0H10.7454Z" fill="#4FAD50"/>
<path d="M0 8.00735V0.0516357H2.58303C2.58303 0.0516357 3.30628 0.0516341 3.71956 1.18817C4.75278 4.18448 4.8561 4.59776 4.8561 4.59776C4.8561 4.59776 5.06274 3.87451 5.99262 1.18817C6.40591 0.0516341 7.12916 0.0516357 7.12916 0.0516357H9.71219V8.00735H7.12916V3.71954H6.8192L5.37271 8.00735H4.23617L2.78968 3.71954H2.47971V8.00735H0Z" fill="#4FAD50"/>
<defs>
<linearGradient id="paint0_linear" x1="19.8285" y1="1.72923" x2="27.9817" y2="1.72923" gradientUnits="userSpaceOnUse">
<stop stop-color="#27B1E6"/>
<stop offset="1" stop-color="#148ACA"/>
</linearGradient>
</defs>
</svg>
