<svg width="28" height="9" viewBox="0 0 28 9" fill="none" xmlns="http://www.w3.org/2000/svg">
<path fill-rule="evenodd" clip-rule="evenodd" d="M7.0003 8.86657H4.57707L2.75995 1.93414C2.6737 1.61525 2.49057 1.33333 2.22119 1.20046C1.54893 0.86655 0.808135 0.600807 0 0.46678V0.199881H3.90362C4.44238 0.199881 4.84645 0.600807 4.91379 1.06643L5.85662 6.06703L8.27866 0.199881H10.6345L7.0003 8.86657ZM11.9814 8.86657H9.69289L11.5774 0.199881H13.8659L11.9814 8.86657ZM16.8267 2.60082C16.894 2.13403 17.2981 1.86713 17.7695 1.86713C18.5103 1.80012 19.3173 1.93415 19.9907 2.2669L20.3948 0.400925C19.7213 0.134027 18.9805 0 18.3083 0C16.0871 0 14.4708 1.20047 14.4708 2.86656C14.4708 4.13404 15.6157 4.79955 16.4238 5.20048C17.2981 5.60025 17.6348 5.86714 17.5675 6.26691C17.5675 6.86657 16.894 7.13347 16.2218 7.13347C15.4136 7.13347 14.6055 6.93358 13.8659 6.59967L13.4618 8.4668C14.27 8.79956 15.1443 8.93359 15.9524 8.93359C18.443 8.99945 19.9907 7.80014 19.9907 6.00002C19.9907 3.73311 16.8267 3.60024 16.8267 2.60082ZM28 8.86657L26.1829 0.199881H24.2311C23.827 0.199881 23.4229 0.46678 23.2882 0.86655L19.9234 8.86657H22.2793L22.7495 7.60025H25.6441L25.9135 8.86657H28ZM24.5678 2.5338L25.2401 5.80013H23.3556L24.5678 2.5338Z" fill="#172B85"/>
</svg>
