<svg width="28" height="7" viewBox="0 0 28 7" fill="none" xmlns="http://www.w3.org/2000/svg">
<g clip-path="url(#clip0)">
<path d="M6.03707 6.57429L4.51366 3.65303C4.82995 3.5563 5.12007 3.43013 5.38122 3.27475C5.64239 3.11784 5.86877 2.93889 6.06023 2.73946C6.25031 2.54004 6.39975 2.32888 6.5056 2.10451C6.61164 1.87869 6.66672 1.64984 6.67244 1.41821C6.67689 1.22169 6.64633 1.03837 6.58394 0.871171C6.52021 0.704069 6.42726 0.560348 6.30546 0.438651C6.18214 0.318308 6.0341 0.227498 5.86002 0.168741C5.68597 0.108693 5.48867 0.0881433 5.27101 0.107154C5.11144 0.121859 4.97214 0.152682 4.85463 0.198088C4.73853 0.245031 4.63995 0.297821 4.5616 0.357869C4.4817 0.419517 4.42084 0.479687 4.37725 0.539736C4.33231 0.599907 4.30333 0.652757 4.28883 0.696686C4.27577 0.742208 4.27421 0.771506 4.28728 0.784698C4.32647 0.822837 4.37148 0.894649 4.42229 1.00023C4.4745 1.10727 4.51801 1.23489 4.5543 1.38445C4.59058 1.53252 4.60509 1.68799 4.59779 1.85083C4.59058 2.01212 4.54852 2.16903 4.4702 2.31712C4.39183 2.46666 4.26414 2.59428 4.0871 2.70279L3.18183 0.371097C3.18183 0.368205 3.17739 0.359468 3.16733 0.344702C3.15858 0.328583 3.14265 0.319846 3.12084 0.318308H0.91846C0.895324 0.318308 0.880727 0.324214 0.873545 0.334489C0.866247 0.344702 0.863343 0.353562 0.864792 0.363836C0.864792 0.374111 0.866247 0.378479 0.866247 0.379956L2.27644 3.22198C1.96603 3.31279 1.67733 3.43604 1.41032 3.58851C1.14342 3.74251 0.90838 3.91701 0.705228 4.11207C0.502074 4.30859 0.341054 4.5183 0.222097 4.73821C0.10314 4.95965 0.0364211 5.18402 0.021917 5.41286C0.0117404 5.6078 0.0364211 5.78966 0.0943899 5.95832C0.152501 6.12699 0.238028 6.2751 0.352681 6.4027C0.467311 6.53022 0.60365 6.62998 0.76177 6.70179C0.919909 6.7737 1.09405 6.81039 1.28406 6.81186C1.44517 6.81039 1.59024 6.78401 1.72082 6.73556C1.85138 6.68713 1.96603 6.6256 2.06319 6.55079C2.16191 6.47597 2.24311 6.39825 2.30697 6.31904C2.36939 6.23987 2.41431 6.1695 2.44041 6.10644C2.46654 6.04335 2.4723 6.00084 2.45925 5.97589C2.42451 5.93931 2.38387 5.87625 2.33739 5.78675C2.29105 5.69727 2.25186 5.59023 2.22133 5.46564C2.18947 5.34093 2.17782 5.2075 2.18657 5.06669C2.19377 4.92453 2.23581 4.78373 2.30985 4.64289C2.38387 4.50364 2.50283 4.37312 2.66817 4.25141L3.6083 6.57429C3.6083 6.57574 3.61127 6.58299 3.61848 6.59621C3.62577 6.60941 3.63883 6.61678 3.66054 6.61823H6.01096C6.03555 6.61678 6.04572 6.60941 6.04427 6.59621C6.04142 6.58299 6.03997 6.57574 6.03707 6.57429ZM11.6344 4.77935C11.6459 4.69132 11.6605 4.57836 11.6808 4.44349C11.6997 4.30712 11.7214 4.15903 11.7446 3.99618C11.7679 3.83345 11.7925 3.66623 11.8187 3.49612C11.8433 3.32599 11.8679 3.16179 11.8912 3.00342C11.9144 2.84506 11.9361 2.70425 11.955 2.57817C11.9739 2.45202 11.9898 2.35238 12 2.27901C12.0116 2.20563 12.0174 2.16759 12.0174 2.16603C12.0159 2.14846 12.0116 2.13673 12.0043 2.13089C11.997 2.12498 11.9927 2.12207 11.9913 2.12207H10.2502C10.2488 2.12207 10.2401 2.12498 10.2241 2.13236C10.2096 2.13964 10.201 2.15283 10.198 2.17487C10.198 2.17632 10.1894 2.23212 10.1748 2.33916C10.1604 2.44767 10.1415 2.59428 10.1196 2.78198C10.05 2.61631 9.96007 2.47113 9.8513 2.34645C9.741 2.22183 9.61037 2.12352 9.45668 2.05317C9.30432 1.9828 9.12731 1.94759 8.92711 1.94613C8.69934 1.94759 8.48745 1.98717 8.29157 2.06781C8.09576 2.14702 7.91881 2.25853 7.76067 2.40069C7.60101 2.54441 7.4618 2.71161 7.3428 2.90221C7.22386 3.09292 7.12519 3.30117 7.04971 3.52554C6.97277 3.74991 6.92061 3.98299 6.89017 4.22503C6.86114 4.46259 6.8553 4.70016 6.87417 4.93917C6.89443 5.17674 6.93808 5.40256 7.00625 5.61664C7.07583 5.83073 7.16865 6.02288 7.28765 6.19008C7.40665 6.35718 7.5503 6.48917 7.71855 6.58446C7.88679 6.68131 8.08127 6.73121 8.30034 6.73265C8.50352 6.73121 8.69636 6.68713 8.87775 6.60212C9.05914 6.51702 9.22744 6.39969 9.38266 6.25013C9.53648 6.10204 9.67569 5.93047 9.79767 5.73835C9.8107 5.94804 9.86292 6.12699 9.95429 6.27655C10.0472 6.42608 10.1704 6.5405 10.3257 6.61969C10.4795 6.70035 10.658 6.73993 10.8596 6.7414C10.983 6.73993 11.1034 6.72092 11.2238 6.68278C11.3427 6.64608 11.4545 6.59621 11.5589 6.53469C11.662 6.47307 11.7504 6.40563 11.8244 6.33225C11.8984 6.26042 11.9507 6.18851 11.9825 6.1167C12 6.07858 12.0015 6.05073 11.984 6.03169C11.968 6.01403 11.9419 5.99502 11.9056 5.97445C11.8694 5.95541 11.8303 5.92455 11.7896 5.8835C11.7475 5.84246 11.7098 5.77937 11.6765 5.69436C11.6431 5.61083 11.6213 5.49494 11.6112 5.34687C11.5995 5.20022 11.6083 5.01098 11.6344 4.77935ZM9.18824 5.51844C9.08233 5.51698 8.99237 5.48612 8.91835 5.42606C8.84445 5.36441 8.78778 5.28087 8.74718 5.17227C8.70512 5.06378 8.67901 4.93771 8.66884 4.79398C8.65874 4.65173 8.66306 4.49626 8.68333 4.3306C8.70366 4.16485 8.73556 4.0094 8.7806 3.86568C8.82552 3.7205 8.88073 3.59444 8.9489 3.48437C9.01708 3.37588 9.09396 3.28944 9.18246 3.22779C9.27091 3.16617 9.36817 3.13541 9.47549 3.13394C9.5814 3.13541 9.67283 3.16617 9.74684 3.22779C9.82086 3.28944 9.87887 3.37588 9.92233 3.48437C9.96451 3.59444 9.99057 3.7205 10.0021 3.86568C10.0123 4.0094 10.0094 4.16485 9.98904 4.3306C9.96884 4.49626 9.93682 4.65173 9.8905 4.79398C9.84545 4.93771 9.78744 5.06378 9.71927 5.17227C9.6511 5.28087 9.57124 5.36441 9.48279 5.42606C9.39283 5.48612 9.29562 5.51698 9.18824 5.51844ZM17.6061 2.23647C17.6061 2.2233 17.6017 2.21446 17.5959 2.20864C17.5901 2.20417 17.5843 2.20126 17.58 2.20126H17.5886C16.9125 2.06202 16.261 1.99299 15.6373 1.99602C15.012 2.00037 14.4011 2.06781 13.8019 2.20126C13.7962 2.20126 13.7903 2.20417 13.7817 2.21008C13.7729 2.21592 13.7686 2.22765 13.7671 2.24531C13.7671 2.24676 13.7628 2.28336 13.754 2.35382C13.7454 2.42417 13.7323 2.51802 13.7149 2.63826C13.6975 2.75703 13.6771 2.89046 13.651 3.03865C13.6265 3.18821 13.5988 3.34075 13.5669 3.49757C13.5351 3.65594 13.5002 3.80704 13.4624 3.95369C13.4247 4.10031 13.3841 4.23231 13.3406 4.34817C13.2405 4.60038 13.1418 4.80865 13.0417 4.97431C12.943 5.14006 12.8488 5.2735 12.7603 5.37326C12.6717 5.47436 12.5919 5.55356 12.5223 5.60936C12.4527 5.66651 12.3975 5.71194 12.3555 5.74573C12.3148 5.77937 12.2916 5.81172 12.2873 5.84393C12.2815 5.88206 12.2873 5.93931 12.3032 6.0155C12.3207 6.09175 12.3511 6.17388 12.3946 6.26479C12.4397 6.35427 12.5005 6.44084 12.5789 6.5244C12.6572 6.6065 12.7545 6.6754 12.8705 6.72818C12.9881 6.78242 13.1273 6.81039 13.2884 6.81186C13.5234 6.8133 13.7338 6.7605 13.9209 6.65346C14.1066 6.54788 14.2691 6.38359 14.4055 6.15922C14.5434 5.93631 14.655 5.64897 14.7421 5.29842C14.8291 4.94936 14.8988 4.58429 14.951 4.20008C15.0032 3.81735 15.0381 3.41996 15.0555 3.01079H15.7606C15.7373 3.19849 15.7142 3.40083 15.6866 3.61792C15.6604 3.8349 15.6329 4.05783 15.6053 4.28655C15.5778 4.51539 15.5502 4.73974 15.5241 4.95965C15.4965 5.18111 15.4704 5.38792 15.4472 5.58141C15.424 5.77502 15.4022 5.94659 15.3848 6.09615C15.366 6.24432 15.3515 6.36009 15.3413 6.44521C15.3311 6.53022 15.3254 6.57283 15.3254 6.57429C15.3268 6.59475 15.3325 6.60794 15.3427 6.61243C15.3529 6.61678 15.3587 6.61969 15.3601 6.61823H17.0402C17.0416 6.61969 17.0475 6.61678 17.0576 6.61243C17.0678 6.60794 17.0736 6.59475 17.0751 6.57429C17.0751 6.57283 17.0808 6.5244 17.0924 6.43202C17.104 6.33963 17.1185 6.21202 17.1389 6.05073C17.1592 5.88798 17.181 5.70321 17.2071 5.49494C17.2317 5.28522 17.2593 5.06525 17.2883 4.83213C17.3159 4.59893 17.3449 4.36427 17.3739 4.12817C17.403 3.89351 17.4305 3.66623 17.4566 3.45072C17.4827 3.23517 17.5074 3.04012 17.5292 2.86564C17.5494 2.69104 17.5669 2.54888 17.5814 2.43883C17.5945 2.32741 17.6031 2.26144 17.6061 2.23647ZM19.8954 3.21316L19.939 3.03721C20.4453 2.97849 20.8705 2.88027 21.2172 2.74384C21.5639 2.6075 21.8381 2.44621 22.0412 2.26144C22.2443 2.07665 22.3851 1.8816 22.4635 1.67626C22.5418 1.47245 22.5651 1.27156 22.5345 1.07651C22.5041 0.879988 22.4286 0.704069 22.3067 0.545704C22.1849 0.388754 22.0267 0.264043 21.8308 0.173109C21.635 0.083775 21.4101 0.0397234 21.1577 0.0456295C20.8182 0.0573807 20.5048 0.12918 20.2161 0.26552C19.9289 0.400506 19.6677 0.58225 19.4327 0.81255C19.1991 1.04275 18.9931 1.3067 18.8146 1.60298C18.6362 1.89914 18.4853 2.21446 18.3649 2.54888C18.2429 2.88174 18.1515 3.22042 18.0907 3.56209C18.0297 3.90526 17.9978 4.23668 17.9978 4.55935C17.9978 4.86436 18.0428 5.15179 18.1298 5.41868C18.2184 5.68555 18.3474 5.92018 18.5186 6.12252C18.6913 6.32641 18.9031 6.48626 19.1541 6.60066C19.4065 6.71642 19.6967 6.77516 20.026 6.77663C20.2974 6.77516 20.5556 6.73849 20.7993 6.66521C21.0445 6.59037 21.2679 6.48335 21.4697 6.34398C21.6713 6.20618 21.8439 6.03754 21.9889 5.84102C22.1327 5.64594 22.24 5.4246 22.3097 5.17965C22.3792 4.93472 22.4054 4.6693 22.3851 4.3834C22.3633 4.13409 22.2966 3.92293 22.1849 3.74832C22.0732 3.57531 21.9281 3.43604 21.7539 3.33337C21.5784 3.22923 21.384 3.15744 21.1736 3.1164C20.9619 3.07679 20.7456 3.06506 20.5265 3.08263C20.3061 3.10018 20.0972 3.14423 19.8954 3.21316ZM20.8443 1.19821C20.9154 1.19821 20.9676 1.21141 20.9996 1.23345C21.0315 1.25693 21.0504 1.28769 21.0576 1.32292C21.0649 1.3595 21.0663 1.39618 21.0619 1.43575C21.0459 1.54283 21.0053 1.64403 20.9386 1.73932C20.8719 1.83317 20.7935 1.91827 20.7036 1.99602C20.6136 2.07221 20.5251 2.13964 20.4381 2.19398C20.3511 2.24969 20.2784 2.29218 20.2204 2.32294C20.1625 2.35238 20.1334 2.36846 20.1305 2.36846C20.1479 2.3054 20.1725 2.22474 20.2031 2.12801C20.2321 2.03113 20.2698 1.93002 20.3119 1.82288C20.3539 1.71584 20.4033 1.61618 20.4569 1.52088C20.5106 1.42694 20.5701 1.34931 20.6354 1.2906C20.6993 1.23054 20.7689 1.19965 20.8443 1.19821ZM20.8095 4.80574C20.8081 4.85854 20.7979 4.92453 20.779 5.00517C20.7602 5.08582 20.7326 5.17082 20.6978 5.26028C20.6616 5.34831 20.6165 5.43332 20.5628 5.51251C20.5092 5.5917 20.4467 5.65623 20.3743 5.70465C20.3017 5.75454 20.2219 5.78095 20.1305 5.7824C20.026 5.78095 19.9405 5.74573 19.8781 5.67682C19.8142 5.6078 19.7663 5.51844 19.7359 5.40549C19.7055 5.29262 19.6865 5.16936 19.6793 5.03446C19.6721 4.89959 19.6735 4.76613 19.6808 4.63116C19.6894 4.4977 19.701 4.37459 19.7155 4.26307C19.73 4.15165 19.7446 4.06218 19.7561 3.99618C19.7591 3.99474 19.7853 3.98748 19.8374 3.97426C19.8883 3.96107 19.9535 3.95078 20.0304 3.94196C20.1073 3.93165 20.1842 3.93312 20.2611 3.9434C20.4061 3.96981 20.5193 4.02113 20.602 4.09594C20.6862 4.17222 20.7442 4.26898 20.7762 4.38922C20.8081 4.50802 20.8196 4.64736 20.8095 4.80574ZM27.5907 4.77935C27.6022 4.69132 27.6168 4.57836 27.6371 4.44349C27.656 4.30712 27.6777 4.15903 27.7009 3.99618C27.7242 3.83345 27.7488 3.66623 27.775 3.49612C27.7996 3.32599 27.8242 3.16179 27.8474 3.00342C27.8707 2.84506 27.8925 2.70425 27.9113 2.57817C27.9302 2.45202 27.9461 2.35238 27.9563 2.27901C27.9678 2.20563 27.9737 2.16759 27.9737 2.16603C27.9722 2.14846 27.9678 2.13673 27.9606 2.13089C27.9533 2.12498 27.949 2.12207 27.9476 2.12207H26.2065C26.2051 2.12207 26.1965 2.12498 26.1804 2.13236C26.1659 2.13964 26.1573 2.15283 26.1543 2.17487C26.1543 2.17632 26.1457 2.23212 26.1312 2.33916C26.1167 2.44767 26.0977 2.59428 26.076 2.78198C26.0063 2.61631 25.9164 2.47113 25.8076 2.34645C25.6973 2.22183 25.5667 2.12352 25.413 2.05317C25.2606 1.9828 25.0835 1.94759 24.8834 1.94613C24.6557 1.94759 24.4437 1.98717 24.2479 2.06781C24.052 2.14702 23.8751 2.25853 23.717 2.40069C23.5573 2.54441 23.4181 2.71161 23.2992 2.90221C23.1802 3.09292 23.0815 3.30117 23.006 3.52554C22.9291 3.74991 22.8769 3.98299 22.8465 4.22503C22.8174 4.46259 22.8116 4.70016 22.8305 4.93917C22.8507 5.17674 22.8944 5.40256 22.9625 5.61664C23.0321 5.83073 23.1249 6.02288 23.2439 6.19008C23.363 6.35718 23.5066 6.48917 23.6748 6.58446C23.8431 6.68131 24.0376 6.73121 24.2566 6.73265C24.4598 6.73121 24.6526 6.68713 24.8341 6.60212C25.0154 6.51702 25.1837 6.39969 25.3389 6.25013C25.4928 6.10204 25.632 5.93047 25.754 5.73835C25.767 5.94804 25.8192 6.12699 25.9106 6.27655C26.0035 6.42608 26.1267 6.5405 26.282 6.61969C26.4358 6.70035 26.6143 6.73993 26.8159 6.7414C26.9393 6.73993 27.0597 6.72092 27.1801 6.68278C27.299 6.64608 27.4108 6.59621 27.5153 6.53469C27.6183 6.47307 27.7067 6.40563 27.7807 6.33225C27.8547 6.26042 27.907 6.18851 27.9389 6.1167C27.9563 6.07858 27.9577 6.05073 27.9403 6.03169C27.9243 6.01403 27.8982 5.99502 27.8619 5.97445C27.8257 5.95541 27.7866 5.92455 27.7459 5.8835C27.7038 5.84246 27.6661 5.77937 27.6328 5.69436C27.5993 5.61083 27.5777 5.49494 27.5674 5.34687C27.5559 5.20022 27.5646 5.01098 27.5907 4.77935ZM25.1445 5.51844C25.0386 5.51698 24.9487 5.48612 24.8746 5.42606C24.8007 5.36441 24.7441 5.28087 24.7035 5.17227C24.6614 5.06378 24.6353 4.93771 24.6251 4.79398C24.615 4.65173 24.6194 4.49626 24.6396 4.3306C24.66 4.16485 24.6918 4.0094 24.7369 3.86568C24.7818 3.7205 24.837 3.59444 24.9052 3.48437C24.9734 3.37588 25.0502 3.28944 25.1388 3.22779C25.2272 3.16617 25.3245 3.13541 25.4318 3.13394C25.5377 3.13541 25.6291 3.16617 25.7031 3.22779C25.7771 3.28944 25.8352 3.37588 25.8786 3.48437C25.9208 3.59444 25.9469 3.7205 25.9584 3.86568C25.9686 4.0094 25.9657 4.16485 25.9454 4.3306C25.9251 4.49626 25.8932 4.65173 25.8468 4.79398C25.8017 4.93771 25.7437 5.06378 25.6756 5.17227C25.6074 5.28087 25.5275 5.36441 25.4391 5.42606C25.3492 5.48612 25.2519 5.51698 25.1445 5.51844Z" fill="#603226"/>
</g>
<defs>
<clipPath id="clip0">
<rect width="28" height="6.82927" fill="white"/>
</clipPath>
</defs>
</svg>
