<svg width="18" height="22" viewBox="0 0 18 22" fill="none" xmlns="http://www.w3.org/2000/svg">
<path fill-rule="evenodd" clip-rule="evenodd" d="M8.78312 5.07362C10.0169 5.17769 11.2506 4.44917 12.0217 3.52551C12.78 2.57584 13.2812 1.30093 13.1527 0C12.0603 0.0520371 10.7109 0.72852 9.93978 1.6782C9.23293 2.49778 8.6289 3.82473 8.78312 5.07362ZM10.26 5.97009C11.0611 5.65167 12.0528 5.25746 13.1397 5.32078C13.8337 5.37282 15.8386 5.58097 17.1238 7.50634C17.1179 7.51082 17.1048 7.51941 17.0855 7.53215C16.7675 7.74145 14.7477 9.07106 14.7719 11.6953C14.796 14.8218 17.312 15.9878 17.6412 16.1403C17.6626 16.1503 17.6748 16.1559 17.6764 16.1575C17.675 16.1617 17.6724 16.1701 17.6687 16.1824C17.603 16.3975 17.1703 17.8146 16.1856 19.2667C15.2731 20.6197 14.335 21.9466 12.8442 21.9726C12.1426 21.9853 11.67 21.7786 11.1779 21.5633C10.6604 21.3369 10.1212 21.101 9.27139 21.101C8.39105 21.101 7.82724 21.3432 7.28451 21.5763C6.81309 21.7788 6.35757 21.9745 5.72433 21.9987C4.28494 22.0507 3.19255 20.5676 2.28008 19.2147C0.416583 16.4827 -1.00995 11.5132 0.917798 8.1568C1.85597 6.47861 3.56524 5.42486 5.40303 5.39884C6.20482 5.38408 6.9694 5.69155 7.63815 5.96048C8.14853 6.16572 8.6031 6.34852 8.9758 6.34852C9.30792 6.34852 9.74446 6.175 10.26 5.97009Z" fill="black"/>
</svg>
