<svg width="20" height="21" viewBox="0 0 20 21" fill="none" xmlns="http://www.w3.org/2000/svg">
<path d="M19.9999 10.5827C19.9999 9.87817 19.9433 9.17366 19.8299 8.48352H10.2072V12.4662H15.7201C15.4933 13.7458 14.7564 14.896 13.6793 15.6149V18.2029H16.9672C18.8945 16.4057 19.9999 13.7458 19.9999 10.5827Z" fill="#4285F4"/>
<path d="M10.2077 20.7047C12.957 20.7047 15.2812 19.7845 16.9676 18.2029L13.6798 15.6149C12.7586 16.2476 11.5823 16.607 10.2077 16.607C7.54336 16.607 5.29004 14.781 4.48224 12.3368H1.09517V15.0111C2.82414 18.5049 6.35292 20.7047 10.2077 20.7047Z" fill="#34A853"/>
<path d="M4.48256 12.3368C4.05733 11.0572 4.05733 9.66252 4.48256 8.36852V5.70862H1.09495C-0.364983 8.62732 -0.364983 12.078 1.09495 14.9967L4.48256 12.3368Z" fill="#FBBC04"/>
<path d="M10.2077 4.09831C11.6674 4.06955 13.0704 4.63029 14.1191 5.65111L17.0385 2.68928C15.182 0.935185 12.7444 -0.0281299 10.2077 0.000625737C6.35292 0.000625737 2.82414 2.21481 1.09517 5.70862L4.48224 8.3829C5.29004 5.92429 7.54336 4.09831 10.2077 4.09831Z" fill="#EA4335"/>
</svg>
