<svg width="20" height="20" viewBox="0 0 20 20" fill="none" xmlns="http://www.w3.org/2000/svg">
<path fill-rule="evenodd" clip-rule="evenodd" d="M0 8.9215C0 13.8093 3.9862 17.7956 8.9215 17.7956C9.52726 17.7956 10.133 17.7425 10.829 17.6816C11.6052 17.6136 12.4937 17.5358 13.6195 17.5108C15.3279 17.5108 17.1786 18.1277 19.2192 19.931C19.409 20.1208 19.6937 19.8836 19.5039 19.6463C17.4634 17.1312 15.6126 16.6566 13.7619 16.2295C11.4841 15.7075 10.2977 14.4737 9.49096 13.0501C9.3486 12.7653 9.25369 12.8128 9.25369 13.1924C9.20623 13.7619 9.25369 14.2839 9.3486 14.8059H9.06387C5.83694 14.8059 3.17947 12.1484 3.17947 8.9215C3.17947 5.69458 5.83694 3.03711 9.06387 3.03711C12.2908 3.03711 14.9483 5.69458 14.9483 8.9215C14.9483 9.11132 14.9483 9.3486 14.9008 9.58587C14.4263 9.49096 13.6195 9.49096 13.0026 9.53842C12.7653 9.53842 12.7653 9.63333 12.9552 9.68078C14.8534 10.0604 16.1821 11.2468 16.5143 13.4297C16.5143 13.5246 16.5617 13.5246 16.6092 13.4772C17.3685 12.1484 17.843 10.5824 17.843 8.9215C17.843 3.9862 13.8568 0 8.9215 0C3.9862 0 0 4.03366 0 8.9215ZM15.3753 12.5755C15.7075 12.7179 15.8498 13.1924 15.8498 13.4297C15.8973 13.8094 15.8024 13.9992 15.66 13.9992C15.5176 13.9992 15.3278 13.8568 15.138 13.5246C14.9482 13.1924 14.8533 12.8603 14.9482 12.6704C15.0905 12.5755 15.2329 12.5281 15.3753 12.5755ZM13.4296 14.0466C13.6195 14.0466 13.8567 14.1416 14.094 14.3314C14.4736 14.6636 14.616 15.0432 14.4262 15.3279C14.3313 15.4703 14.094 15.5652 13.9042 15.5652C13.6669 15.5652 13.4296 15.4703 13.2873 15.3279C12.9076 14.9957 12.8127 14.5212 13.05 14.2365C13.0975 14.1416 13.2398 14.0466 13.4296 14.0466Z" fill="#F28A1A"/>
</svg>
