<svg width="21" height="20" viewBox="0 0 21 20" fill="none" xmlns="http://www.w3.org/2000/svg">
<path fill-rule="evenodd" clip-rule="evenodd" d="M10.2732 0C11.8863 0 13.4139 0.365643 14.7745 1.0148C14.9882 1.11348 15.2013 1.22204 15.4151 1.3419L14.4693 2.16581L13.0484 0.735726L10.6503 2.81779L9.22587 1.30457L4.75857 5.22414L7.62254 8.29639L6.49706 9.25994L9.31791 12.3368L8.19907 13.2982L12.23 17.6655L14.6227 15.5213L16.6915 17.8191C16.28 18.1304 15.8318 18.4234 15.338 18.6942C13.842 19.5246 12.1131 20 10.2732 20C4.6149 20 0 15.5074 0 10.0003C0 4.49204 4.6149 0 10.2732 0ZM8.40088 9.36809L10.8438 7.2267L13.0436 9.60519L10.6008 11.7458L8.40088 9.36809ZM12.5812 11.3361L10.1381 13.4769L12.3382 15.8554L14.7812 13.714L12.5812 11.3361ZM6.65295 5.30727L9.09588 3.16648L11.295 5.54437L8.85209 7.68516L6.65295 5.30727ZM12.9681 2.54941L11.1359 4.15485L12.7855 5.93888L14.6177 4.33283L12.9681 2.54941ZM14.3912 11.5099L16.2241 9.90385L17.8736 11.6877L16.0414 13.2933L14.3912 11.5099ZM17.8349 13.506L16.0031 15.1123L17.6526 16.8951L19.4848 15.2894L17.8349 13.506ZM16.7409 6.85601L17.9624 5.78551L19.062 6.97446L17.8411 8.04475L16.7409 6.85601ZM16.4019 2.25298L15.1804 3.32327L16.28 4.51221L17.5016 3.44192L16.4019 2.25298ZM18.3025 10.3885L19.524 9.31805L20.6237 10.5068L19.4023 11.5773L18.3025 10.3885ZM14.6566 6.13522L12.8246 7.74146L14.4746 9.52428L16.3062 7.91864L14.6566 6.13522Z" fill="#0068A3"/>
</svg>
