<svg width="20" height="19" viewBox="0 0 20 19" fill="none" xmlns="http://www.w3.org/2000/svg">
<path d="M20 7.65957C19.8953 7.0313 19.3194 6.61245 18.534 6.61245C18.2723 6.61245 18.0628 6.61245 17.8011 6.61245C17.3299 6.56009 17.2251 6.71716 17.2251 7.08366C17.2251 8.91612 17.2251 10.6962 17.2251 12.5287C17.2251 13.4711 16.2827 14.4659 15.1833 14.6753C11.7278 15.4606 8.27225 16.1936 4.81675 16.9789C4.45025 17.0837 4.03141 17.0837 3.61256 17.0837C3.4555 17.0837 3.19372 16.9789 3.14136 16.8219C3.08901 16.7172 3.24607 16.5077 3.35078 16.403C3.50785 16.2983 3.71728 16.1936 3.9267 16.0889C4.55498 15.8795 5.2356 15.67 5.86387 15.4606C8.42931 14.6229 10.9948 13.7852 13.5602 12.8952C14.712 12.5287 15.3403 11.7433 15.3403 10.7486C15.3927 7.60722 15.3403 4.4135 15.3403 1.27213C15.3403 0.748573 15.0785 0.329726 14.5026 0.120302C13.822 -0.141478 13.1937 0.0679428 12.6178 0.329723C8.95287 2.05747 5.34031 3.78523 1.67538 5.51298C0.628263 6.03654 0 6.76952 0 7.81664C0 10.8009 0 13.7852 0 16.7695C0 16.9266 -1.27822e-05 17.0837 0.0523433 17.1884C0.418836 18.1831 1.36126 18.8114 2.6178 18.8114C5.18325 18.8114 7.74868 18.8114 10.3141 18.8114C12.8796 18.8114 15.3927 18.8114 17.9581 18.8114C18.534 18.8114 19.0052 18.7067 19.4241 18.3402C19.9476 17.9214 19.9476 17.3454 19.9476 16.8219C19.9476 14.2461 20 7.65957 20 7.65957ZM9.31937 6.71717C9.58115 6.03654 10.1571 5.61769 10.9948 5.51298C11.5707 5.46062 12.0419 5.77476 12.1466 6.29832C12.2513 7.08366 11.3089 8.02607 10.3141 8.02607C9.52879 8.02607 9.05759 7.45015 9.31937 6.71717Z" fill="#FD6727"/>
</svg>
