<svg width="20" height="16" viewBox="0 0 20 16" fill="none" xmlns="http://www.w3.org/2000/svg">
<path d="M0 3.5C0 1.84315 1.34315 0.5 3 0.5H16C17.6568 0.5 19 1.84315 19 3.50001C19 4.05229 18.5523 4.5 18 4.5H14.5C12.567 4.5 11 6.067 11 8C11 9.933 12.567 11.5 14.5 11.5H18C18.5523 11.5 19 11.9477 19 12.5C19 14.1569 17.6569 15.5 16 15.5H3C1.34315 15.5 0 14.1569 0 12.5V3.5Z" fill="#969696"/>
<path d="M19.9999 6.91966V9.05955C19.9999 9.64127 19.5306 10.1399 18.9387 10.1399H14.7346C13.5714 10.1399 12.6326 9.18421 12.6326 8C12.6326 6.81579 13.5714 5.86011 14.7346 5.86011H18.9387C19.5306 5.86011 19.9999 6.33795 19.9999 6.91966ZM15.7959 8C15.7959 7.41828 15.3265 6.91966 14.7346 6.91966C14.1428 6.91966 13.6734 7.3975 13.6734 8C13.6734 8.60249 14.1428 9.08033 14.7346 9.08033C15.3265 9.08033 15.7959 8.58171 15.7959 8Z" fill="#969696"/>
</svg>
